<svg xmlns="http://www.w3.org/2000/svg" width="20.396" height="24" viewBox="0 0 20.396 24">
  <g id="Group_15" data-name="Group 15" transform="translate(-0.042 0)">
    <path id="Path_53" data-name="Path 53" d="M.294,148.389a12.445,12.445,0,0,0,.932,2.134,2.639,2.639,0,0,1,.209.81l.861,8.436a.985.985,0,0,0,.983.886H4.767a.985.985,0,0,0,.983-.886l.861-8.436a2.71,2.71,0,0,1,.219-.825.46.46,0,0,0-.841-.372,3.619,3.619,0,0,0-.29,1.105l-.861,8.436a.065.065,0,0,1-.061.056H3.29a.061.061,0,0,1-.061-.056l-.871-8.441a3.77,3.77,0,0,0-.29-1.105.153.153,0,0,0-.02-.041,11.613,11.613,0,0,1-.861-1.946,7.79,7.79,0,0,1-.107-3.1,2.785,2.785,0,0,1,.377-.331,7.441,7.441,0,0,1,1.167-.678l1.029,1.416a.461.461,0,0,0,.744,0l1.248-1.717a.463.463,0,1,0-.749-.545l-.876,1.2-.866-1.2a.462.462,0,0,0-.545-.158,8.842,8.842,0,0,0-1.7.937,3.713,3.713,0,0,0-.494.433C-.235,145.057.126,147.767.294,148.389Z" transform="translate(0 -136.655)" fill="#fff"/>
    <path id="Path_54" data-name="Path 54" d="M38.313,34.621H38.4a1.935,1.935,0,0,0,1.447-.632,3.561,3.561,0,0,0,.632-2.46A2.038,2.038,0,0,0,38.394,29.4h-.082a2.044,2.044,0,0,0-2.083,2.129,3.59,3.59,0,0,0,.632,2.46A1.936,1.936,0,0,0,38.313,34.621Zm-1.161-3.011V31.58c.051-1.1.749-1.263,1.161-1.263h.076c.413,0,1.111.163,1.161,1.263v.025a2.661,2.661,0,0,1-.408,1.768.992.992,0,0,1-.79.321h-.01a1.009,1.009,0,0,1-.79-.321A2.7,2.7,0,0,1,37.151,31.611Z" transform="translate(-34.33 -27.902)" fill="#fff"/>
    <path id="Path_55" data-name="Path 55" d="M282.26,149.822a.455.455,0,0,0-.234.606,2.75,2.75,0,0,1,.219.825l.861,8.436a.985.985,0,0,0,.983.886h1.487a.985.985,0,0,0,.983-.886l.861-8.436a2.79,2.79,0,0,1,.209-.81,11.7,11.7,0,0,0,.932-2.134c.168-.621.535-3.332-.117-3.984a3.713,3.713,0,0,0-.494-.433,8.683,8.683,0,0,0-1.7-.937.454.454,0,0,0-.545.158l-.876,1.2-.881-1.2a.463.463,0,0,0-.749.545l1.248,1.717a.461.461,0,0,0,.744,0l1.029-1.416a7.448,7.448,0,0,1,1.167.678,3.079,3.079,0,0,1,.377.331,7.791,7.791,0,0,1-.107,3.1,11.611,11.611,0,0,1-.861,1.946.306.306,0,0,0-.02.041,3.619,3.619,0,0,0-.29,1.105l-.861,8.436a.065.065,0,0,1-.061.056h-1.487a.061.061,0,0,1-.061-.056l-.861-8.436a3.771,3.771,0,0,0-.29-1.105A.455.455,0,0,0,282.26,149.822Z" transform="translate(-268.379 -136.58)" fill="#fff"/>
    <path id="Path_56" data-name="Path 56" d="M297.908,34.621h.087a1.936,1.936,0,0,0,1.452-.632,3.561,3.561,0,0,0,.632-2.46,2.036,2.036,0,0,0-2.084-2.129h-.082a2.044,2.044,0,0,0-2.083,2.129,3.589,3.589,0,0,0,.632,2.46A1.935,1.935,0,0,0,297.908,34.621Zm-1.161-3.011V31.58c.051-1.1.749-1.263,1.161-1.263h.076c.413,0,1.111.163,1.161,1.263v.025a2.661,2.661,0,0,1-.408,1.768,1.009,1.009,0,0,1-.79.321h-.01a1.009,1.009,0,0,1-.79-.321A2.7,2.7,0,0,1,296.746,31.611Z" transform="translate(-281.505 -27.902)" fill="#fff"/>
    <path id="Path_57" data-name="Path 57" d="M125.586,122.712c-.688.688-.3,3.556-.117,4.218a12.749,12.749,0,0,0,.993,2.267,2.9,2.9,0,0,1,.229.871l.917,8.991a1.015,1.015,0,0,0,1.019.917h1.584a1.026,1.026,0,0,0,1.019-.917l.917-8.991a2.86,2.86,0,0,1,.229-.871,12.928,12.928,0,0,0,.993-2.267c.178-.662.571-3.53-.117-4.218a4.126,4.126,0,0,0-.52-.458,9.542,9.542,0,0,0-1.8-1,.454.454,0,0,0-.545.158l-.973,1.319-.958-1.319a.462.462,0,0,0-.545-.158,9.383,9.383,0,0,0-1.8,1A3.8,3.8,0,0,0,125.586,122.712Zm.662.642a2.835,2.835,0,0,1,.408-.357,7.671,7.671,0,0,1,1.274-.739l1.111,1.528a.461.461,0,0,0,.744,0l1.111-1.528a8.1,8.1,0,0,1,1.274.739,2.835,2.835,0,0,1,.408.357,8.1,8.1,0,0,1-.112,3.332,11.858,11.858,0,0,1-.922,2.078.3.3,0,0,0-.02.041,3.871,3.871,0,0,0-.311,1.172l-.917,8.991a.1.1,0,0,1-.1.087h-1.584a.1.1,0,0,1-.1-.087l-.917-8.991a3.765,3.765,0,0,0-.311-1.172.153.153,0,0,0-.02-.041,12.4,12.4,0,0,1-.922-2.083A8.3,8.3,0,0,1,126.248,123.354Z" transform="translate(-119.176 -115.986)" fill="#fff"/>
    <path id="Path_58" data-name="Path 58" d="M166,5.512h.092a1.981,1.981,0,0,0,1.523-.667,3.791,3.791,0,0,0,.667-2.6A2.144,2.144,0,0,0,166.094,0H166a2.146,2.146,0,0,0-2.19,2.241,3.779,3.779,0,0,0,.667,2.6A2.011,2.011,0,0,0,166,5.512Zm-1.268-3.184V2.3c.056-1.243.907-1.375,1.268-1.375h.087c.362,0,1.212.132,1.268,1.375v.025a2.868,2.868,0,0,1-.438,1.905,1.1,1.1,0,0,1-.866.351h-.015a1.113,1.113,0,0,1-.866-.351A2.849,2.849,0,0,1,164.734,2.328Z" transform="translate(-155.813)" fill="#fff"/>
  </g>
</svg>
