<svg xmlns="http://www.w3.org/2000/svg" width="24.094" height="24.75" viewBox="0 0 24.094 24.75">
  <g id="Group_3046" data-name="Group 3046" transform="translate(-1.125 -1.125)">
    <path id="Path_1755" data-name="Path 1755" d="M24.248,8.884l-3.36.089A8.809,8.809,0,0,0,19.86,7.558l1.125-3.167a13.124,13.124,0,0,0-1.565-1.14L16.76,5.3a8.927,8.927,0,0,0-1.669-.544l-.954-3.219c-.32-.022-.641-.037-.969-.037s-.648.015-.969.037l-.946,3.219A8.413,8.413,0,0,0,9.584,5.3L6.924,3.251A11.656,11.656,0,0,0,5.36,4.391L6.485,7.558A9.153,9.153,0,0,0,5.457,8.973L2.1,8.884a11.8,11.8,0,0,0-.6,1.84l2.772,1.9a8.668,8.668,0,0,0,0,1.758L1.5,16.276a12.057,12.057,0,0,0,.6,1.84l3.36-.089a8.809,8.809,0,0,0,1.028,1.416L5.36,22.609a13.124,13.124,0,0,0,1.565,1.14L9.584,21.7a8.926,8.926,0,0,0,1.669.544l.946,3.219c.32.022.641.037.969.037s.648-.015.969-.037l.946-3.219a8.413,8.413,0,0,0,1.669-.544l2.667,2.042a11.656,11.656,0,0,0,1.565-1.14L19.86,19.435a9.152,9.152,0,0,0,1.028-1.416l3.36.089a11.8,11.8,0,0,0,.6-1.84l-2.772-1.9a8.668,8.668,0,0,0,0-1.758l2.772-1.9A11.88,11.88,0,0,0,24.248,8.884Z" transform="translate(0 0)" fill="none" stroke="#fff" stroke-linecap="round" stroke-linejoin="round" stroke-miterlimit="10" stroke-width="0.75"/>
    <circle id="Ellipse_475" data-name="Ellipse 475" cx="2.274" cy="2.274" r="2.274" transform="translate(10.902 11.223)" stroke-width="0.75" stroke="#fff" stroke-linecap="round" stroke-linejoin="round" stroke-miterlimit="10" fill="none"/>
  </g>
</svg>
