<svg xmlns="http://www.w3.org/2000/svg" width="18.74" height="24" viewBox="0 0 18.74 24">
  <g id="Group_14" data-name="Group 14" transform="translate(0 0)">
    <path id="Path_42" data-name="Path 42" d="M16.885,1.879H13.855V1.855a.732.732,0,0,0-.728-.728h-1.9V1.1a1.1,1.1,0,0,0-1.1-1.1h-1.5a1.1,1.1,0,0,0-1.1,1.1v.023h-1.9a.732.732,0,0,0-.728.728v.023H1.855A1.856,1.856,0,0,0,0,3.734V22.145A1.856,1.856,0,0,0,1.855,24H16.885a1.856,1.856,0,0,0,1.855-1.855V3.734A1.856,1.856,0,0,0,16.885,1.879ZM13.5,4.086h3.006a.022.022,0,0,1,.023.023V21.769a.022.022,0,0,1-.023.023H2.231a.022.022,0,0,1-.023-.023V4.11a.022.022,0,0,1,.023-.023h3.02a1.85,1.85,0,0,0,1.489.751H12a1.85,1.85,0,0,0,1.489-.751ZM8.219,1.1a.4.4,0,0,1,.4-.4h1.5a.4.4,0,0,1,.4.4v.023h-2.3Zm-2.63.751a.022.022,0,0,1,.023-.023h7.515a.022.022,0,0,1,.023.023V2.982A1.153,1.153,0,0,1,12,4.133H6.74A1.153,1.153,0,0,1,5.589,2.982Zm12.446,20.29A1.153,1.153,0,0,1,16.885,23.3H1.855A1.153,1.153,0,0,1,.7,22.145V3.734A1.153,1.153,0,0,1,1.855,2.583H4.885v.4a1.857,1.857,0,0,0,.042.4h-2.7A.732.732,0,0,0,1.5,4.11V21.769a.732.732,0,0,0,.728.728H16.509a.732.732,0,0,0,.728-.728V4.11a.732.732,0,0,0-.728-.728h-2.7a1.857,1.857,0,0,0,.042-.4v-.4h3.029a1.153,1.153,0,0,1,1.151,1.151Z" fill="#fff"/>
    <path id="Path_43" data-name="Path 43" d="M80.411,139.822h3a.411.411,0,0,0,.411-.411v-3a.411.411,0,0,0-.411-.411h-3a.411.411,0,0,0-.411.411v3A.411.411,0,0,0,80.411,139.822Zm.314-3.1H83.1V139.1H80.726Z" transform="translate(-76.271 -129.648)" fill="#fff"/>
    <path id="Path_44" data-name="Path 44" d="M83.411,344h-3a.411.411,0,0,0-.411.411v3a.411.411,0,0,0,.411.411h3a.411.411,0,0,0,.411-.411v-3A.411.411,0,0,0,83.411,344Zm-.314,3.1H80.726v-2.371H83.1Z" transform="translate(-76.271 -327.932)" fill="#fff"/>
    <path id="Path_45" data-name="Path 45" d="M83.977,240.106l-.261.261a.75.75,0,0,0-.643-.368H80.75a.754.754,0,0,0-.75.75v2.322a.754.754,0,0,0,.75.75h2.322a.754.754,0,0,0,.75-.75v-.387a.363.363,0,0,0-.726,0v.387a.023.023,0,0,1-.024.024H80.75a.023.023,0,0,1-.024-.024V240.75a.023.023,0,0,1,.024-.024h2.322a.023.023,0,0,1,.024.024v.237l-.8.8-.518-.518a.363.363,0,1,0-.513.513l.774.774a.362.362,0,0,0,.513,0l1.161-1.161h0l.774-.774a.363.363,0,0,0-.513-.513Z" transform="translate(-76.278 -228.79)" fill="#fff"/>
    <path id="Path_46" data-name="Path 46" d="M176.363,144.726h1.161a.363.363,0,1,0,0-.726h-1.161a.363.363,0,1,0,0,.726Z" transform="translate(-167.761 -137.243)" fill="#fff"/>
    <path id="Path_47" data-name="Path 47" d="M176,176.363a.366.366,0,0,0,.363.363h5.806a.363.363,0,1,0,0-.726h-5.806A.365.365,0,0,0,176,176.363Z" transform="translate(-167.861 -167.741)" fill="#fff"/>
    <path id="Path_48" data-name="Path 48" d="M176.363,256.726h3.87a.363.363,0,1,0,0-.726h-3.87a.363.363,0,0,0,0,.726Z" transform="translate(-167.812 -243.987)" fill="#fff"/>
    <path id="Path_49" data-name="Path 49" d="M182.168,288h-5.806a.363.363,0,1,0,0,.726h5.806a.363.363,0,1,0,0-.726Z" transform="translate(-167.861 -274.486)" fill="#fff"/>
    <path id="Path_50" data-name="Path 50" d="M176.363,360.726h1.548a.363.363,0,1,0,0-.726h-1.548a.363.363,0,1,0,0,.726Z" transform="translate(-167.767 -343.107)" fill="#fff"/>
    <path id="Path_51" data-name="Path 51" d="M182.168,392h-5.806a.363.363,0,0,0,0,.726h5.806a.363.363,0,0,0,0-.726Z" transform="translate(-167.861 -373.606)" fill="#fff"/>
  </g>
</svg>
