<svg xmlns="http://www.w3.org/2000/svg" width="24" height="21.2" viewBox="0 0 24 21.2">
  <g id="Group_19" data-name="Group 19" transform="translate(-45 -319.948)">
    <path id="Path_52" data-name="Path 52" d="M22.8,3.2H11.2v-2A1.2,1.2,0,0,0,10,0H1.2A1.23,1.23,0,0,0,0,1.2V20a1.2,1.2,0,0,0,1.2,1.2H22.8A1.2,1.2,0,0,0,24,20V4.4A1.23,1.23,0,0,0,22.8,3.2ZM23.2,20a.4.4,0,0,1-.4.4H1.2A.4.4,0,0,1,.8,20V7.6H23.2ZM.8,6.8V1.2A.4.4,0,0,1,1.2.8H10a.4.4,0,0,1,.4.4V4H22.8a.4.4,0,0,1,.4.4V6.8Z" transform="translate(45 319.948)" fill="#fff"/>
    <g id="Rectangle_18" data-name="Rectangle 18" transform="translate(47.441 328.944)" fill="none" stroke="#fff" stroke-width="1">
      <rect width="18.748" height="9.764" stroke="none"/>
      <rect x="0.5" y="0.5" width="17.748" height="8.764" fill="none"/>
    </g>
  </g>
</svg>
